<?xml version="1.0" encoding="UTF-8"?>
<!DOCTYPE svg PUBLIC "-//W3C//DTD SVG 1.1//EN" "http://www.w3.org/Graphics/SVG/1.1/DTD/svg11.dtd">
<!-- Creator: CorelDRAW 2021 (64-Bit) -->
<svg xmlns="http://www.w3.org/2000/svg" xml:space="preserve" width="31.5806mm" height="29.2946mm" version="1.1" style="shape-rendering:geometricPrecision; text-rendering:geometricPrecision; image-rendering:optimizeQuality; fill-rule:evenodd; clip-rule:evenodd"
viewBox="0 0 3158.06 2929.46"
 xmlns:xlink="http://www.w3.org/1999/xlink"
 xmlns:xodm="http://www.corel.com/coreldraw/odm/2003">
 <defs>
  <style type="text/css">
   <![CDATA[
    .fil0 {fill:none}
    .fil1 {fill:#B78745}
    .fil2 {fill:#D9C2A3}
    .fil3 {fill:black;fill-rule:nonzero}
   ]]>
  </style>
 </defs>
 <g id="Layer_x0020_1">
  <metadata id="CorelCorpID_0Corel-Layer"/>
  <rect class="fil0" x="-4.24" y="-0.01" width="3158.07" height="2929.47"/>
  <g id="_2582558008480">
   <path class="fil1" d="M953.93 1351.94l0.28 1205.55 -146.66 0.45c-6.06,-24.52 -0.82,-1097.26 -0.7,-1097.61 2.21,-6.43 126.44,-98.16 147.08,-108.39zm-339.96 6.28l1.02 1403.89 2340.08 0.45 -1.2 -202.43c-69,-4.06 -150.25,-0.46 -221.66,-0.46 -175.86,0 -1552.01,4.51 -1571.71,-2.47 -5.06,-36.92 -0.42,-1136.6 -0.98,-1314.46 -0.05,-16.73 -2.83,-31.2 3.37,-39.42 5.45,-12.78 25.08,-21.68 41.34,-33.03l219.78 -159.28c16.24,-11.87 26.57,-18.74 43.16,-31.32 8.4,-6.36 15.36,-10.3 21.79,-15.48 11.36,-9.17 11.63,-10.32 24.61,-16.3 16.83,7.8 37.32,25.08 54.77,36.98l218.48 150.44c20.84,13.64 37.05,26.31 56.54,38.32 40.28,24.83 121.02,85.56 164.25,113.29l110.41 75.78c20.59,13.21 33.49,30.82 62.17,31.04 123.07,0.95 248.68,1.32 371.69,-0.25 -5.33,-9.7 -160.47,-113.53 -189.62,-132.94 -21.94,-14.59 -44.02,-30.5 -65.47,-46.14 -12.9,-9.4 -21.45,-13.96 -32.73,-21.51l-96.16 -66.33c-21.57,-13.98 -42.37,-29.67 -63.58,-44.65 -22.88,-16.18 -43.79,-29.3 -66.46,-45.33l-517.52 -356.17c-27.47,13.45 -337.18,253.94 -359.13,264.3l-0.4 -782.11 -966.09 5.13c-6.77,24.82 -2.12,570.49 -2.12,645.08 0,648.3 -4.77,1304.92 0.05,1951.26l220 0.1 0.05 -2392.72 541.46 -0.17 0.07 729.2c-83.27,66.02 -225.74,170.17 -319.45,238.42l-20.81 19.29z"/>
   <path class="fil2" d="M613.97 1358.22c-9.81,17.63 -2.79,144.06 -2.79,175.65 0,179.7 -4.05,1219.82 2.5,1228.24 5.4,6.94 24.64,4.22 33.27,4.12 12.4,-0.13 24.85,-0.03 37.27,-0.03l2268.69 -2.85c10.06,-25.33 5.62,-198.82 2.16,-203.22 -5.68,-7.22 -43.38,-4.11 -53.61,-4.11l-1293.11 0c-92.34,0 -375.9,4.64 -444.88,-0.46l-0.58 -1352.24c-6.2,8.22 -3.42,22.69 -3.37,39.42 0.56,177.86 -4.08,1277.54 0.98,1314.46 19.7,6.98 1395.85,2.47 1571.71,2.47 71.41,0 152.66,-3.6 221.66,0.46l1.2 202.43 -2340.08 -0.45 -1.02 -1403.89z"/>
   <path class="fil3" d="M1494.67 1892.5l0 -296.83c-3.33,3.9 -7.59,7.16 -12.69,9.93 -5.11,2.69 -10.58,4.68 -16.32,6.03 -5.75,1.28 -11.21,1.91 -16.32,1.91l0 -41.36c7.38,-1.06 14.76,-3.47 22.14,-7.16 7.44,-3.62 14.26,-8.66 20.5,-15.04 6.24,-6.39 11.28,-14.12 15.18,-23.27l43.21 0 0 365.79 -55.7 0z"/>
   <polygon id="_1" class="fil3" points="1600.03,1755.08 1600.03,1718.76 1699.35,1718.76 1699.35,1755.08 "/>
   <path id="_2" class="fil3" d="M1753.63 1892.5l0 -365.79 79.17 0c18.45,0 33.13,2.76 44.06,8.37 10.92,5.67 18.87,14.54 23.76,26.6 4.97,12.14 7.38,28.03 7.38,47.75l0 11.21c0,19.01 -2.41,34.62 -7.38,46.89 -4.89,12.21 -13.12,20.79 -24.61,25.61 9.57,3.2 17.24,8.94 22.98,17.17 5.75,8.23 9.86,18.31 12.35,30.15 2.55,11.85 3.76,24.84 3.76,38.95l0 9.37c-0.15,24.4 -2.98,44.27 -8.52,59.52 -5.53,15.33 -14.19,26.53 -25.96,33.63 -11.78,7.02 -27.17,10.57 -46.19,10.57l-80.8 0zm55.69 -43.21l19.72 0c7.38,0 13.2,-1.63 17.59,-4.89 4.33,-3.26 7.52,-8.73 9.44,-16.32 1.92,-7.66 2.91,-18.02 2.91,-31.21l0 -29.52c0,-17.73 -1.7,-30.65 -5.11,-38.73 -3.4,-8.09 -10.43,-12.13 -21.07,-12.13l-23.48 0 0 132.8zm0 -174.59l20.57 0c4.83,0 8.8,-0.71 11.85,-2.13 3.05,-1.35 5.39,-3.76 7.09,-7.16 1.64,-3.41 2.77,-8.09 3.41,-14.19 0.64,-6.11 0.92,-13.91 0.92,-23.27l0 -22.07c0,-9.86 -0.92,-17.31 -2.69,-22.42 -1.78,-5.18 -4.54,-8.65 -8.23,-10.43 -3.69,-1.77 -8.38,-2.69 -14.19,-2.69l-18.73 0 0 104.36z"/>
   <polygon id="_3" class="fil3" points="1958.16,1892.5 1958.16,1526.71 2013.85,1526.71 2013.85,1845.11 2084.3,1845.11 2084.3,1892.5 "/>
   <path id="_4" class="fil3" d="M2187.24 1896.69c-19.01,0 -34.48,-4.05 -46.47,-12.06 -11.99,-8.09 -20.86,-20.01 -26.53,-35.76 -5.68,-15.82 -8.52,-35.33 -8.52,-58.6l0 -167.36c0,-21.07 2.77,-39.09 8.3,-54.06 5.61,-14.9 14.41,-26.46 26.47,-34.48 11.99,-8.02 27.81,-12.06 47.32,-12.06 14.75,0 27.1,2.27 37.24,6.88 10.08,4.54 18.31,11.21 24.55,19.87 6.24,8.65 10.71,19.15 13.62,31.57 2.84,12.41 4.26,26.53 4.26,42.28l0 167.36c0,23.27 -2.77,42.78 -8.23,58.6 -5.46,15.75 -14.12,27.67 -25.9,35.76 -11.77,8.01 -27.17,12.06 -46.11,12.06zm0 -48.25c6.88,0 12.13,-2.05 15.54,-6.24 3.47,-4.19 5.81,-10.5 7.02,-19.01 1.14,-8.52 1.7,-19.3 1.7,-32.35l0 -170.41c0,-15.97 -1.49,-28.24 -4.47,-36.9 -2.98,-8.65 -9.36,-12.98 -19.22,-12.98 -10.08,0 -16.96,4.19 -20.58,12.56 -3.54,8.37 -5.39,20.79 -5.39,37.1l0 170.63c0,13.33 0.64,24.26 1.78,32.77 1.2,8.52 3.61,14.76 7.3,18.8 3.62,4.05 9.08,6.03 16.32,6.03z"/>
   <path id="_5" class="fil3" d="M2392.98 1896.69c-17.73,0 -32.49,-4.12 -44.27,-12.28 -11.77,-8.16 -20.57,-20.15 -26.46,-35.9 -5.89,-15.67 -8.87,-34.69 -8.87,-57.04l0 -159.41c0,-16.74 1.42,-31.85 4.19,-45.33 2.77,-13.41 7.24,-24.9 13.48,-34.48 6.24,-9.58 14.54,-16.89 24.97,-22 10.36,-5.17 23.2,-7.73 38.45,-7.73 13.84,0 25.69,2.27 35.41,6.74 9.79,4.54 17.73,11 23.9,19.44 6.18,8.44 10.72,18.66 13.55,30.65 2.84,11.99 4.26,25.47 4.26,40.44l0 50.3 -53.85 0 0 -46.76c0,-18.02 -1.56,-31.28 -4.54,-39.8 -3.05,-8.51 -9.15,-12.77 -18.3,-12.77 -10.15,0 -16.88,4.62 -20.29,13.84 -3.41,9.22 -5.11,22.06 -5.11,38.52l0 170.84c0,12.77 0.78,23.2 2.2,31.28 1.49,8.16 3.9,14.05 7.38,17.88 3.48,3.83 8.3,5.75 14.54,5.75 9.44,0 15.82,-4.47 19.16,-13.34 3.33,-8.87 4.96,-22.91 4.96,-42.14l0 -52.43 54.63 0 0 51.79c0,23.13 -2.69,42.43 -8.09,57.89 -5.39,15.4 -13.97,26.96 -25.68,34.55 -11.7,7.66 -26.89,11.5 -45.62,11.5z"/>
   <polygon id="_6" class="fil3" points="2519.41,1892.5 2519.41,1526.71 2575.1,1526.71 2575.1,1695.06 2630.79,1526.71 2688.4,1526.71 2627.67,1707.12 2693.15,1892.5 2634.34,1892.5 2575.52,1721.66 2575.52,1892.5 "/>
   <path id="_7" class="fil3" d="M1537.24 2402.9c-21.99,0 -39.73,-8.73 -53.21,-26.11 -13.41,-17.38 -20.15,-45.62 -20.15,-84.71l0 -158.98c0,-16.32 1.57,-31.01 4.69,-43.85 3.12,-12.91 7.94,-23.84 14.54,-32.77 6.6,-8.94 15.18,-15.68 25.68,-20.37 10.57,-4.61 23.2,-6.95 38.03,-6.95 16.1,0 29.16,2.41 39.3,7.17 10.15,4.82 17.88,11.7 23.41,20.78 5.47,9.09 9.23,20.22 11.28,33.35 2.06,13.19 3.13,28.09 3.13,44.69l0 26.04 -51.94 0 0 -38.31c0,-16.46 -1.7,-28.17 -5.1,-35.12 -3.41,-6.88 -9.79,-10.36 -19.23,-10.36 -10.43,0 -17.59,4.05 -21.64,12.14 -3.97,8.08 -6.03,22.49 -6.03,43.13l0 158.56c0,23.06 1.7,39.52 5.11,49.38 3.41,9.93 10.5,14.9 21.28,14.9 10.57,0 18.02,-5.11 22.35,-15.33 4.4,-10.14 6.6,-27.17 6.6,-51l0 -49.24 -28.1 0 0 -40.51 76.7 0 0 199.71 -24.91 0 -8.58 -35.97c-3.05,12.63 -9.51,22.42 -19.37,29.3 -9.93,6.95 -21.21,10.43 -33.84,10.43z"/>
   <polygon id="_8" class="fil3" points="1676.37,2399.14 1676.37,2033.35 1732.06,2033.35 1732.06,2181.34 1781.93,2181.34 1781.93,2033.35 1837.62,2033.35 1837.62,2399.14 1781.93,2399.14 1781.93,2229.16 1732.06,2229.16 1732.06,2399.14 "/>
   <path id="_9" class="fil3" d="M1870.9 2399.14l52.14 -365.79 73.57 0 55.55 365.79 -52 0 -8.73 -65.27 -59.02 0 -7.88 65.27 -53.63 0zm66.9 -109.96l47.82 0 -24.48 -183.75 -0.85 0 -22.49 183.75z"/>
   <polygon id="_10" class="fil3" points="2085.23,2399.14 2085.23,2033.35 2128.86,2033.35 2206.4,2252.78 2202.43,2153.03 2202.43,2033.35 2252.51,2033.35 2252.51,2399.14 2213,2399.14 2133.4,2171.97 2136.52,2267.96 2136.52,2399.14 "/>
   <path id="_11" class="fil3" d="M2285.79 2399.14l52.14 -365.79 73.57 0 55.55 365.79 -52 0 -8.73 -65.27 -59.02 0 -7.88 65.27 -53.63 0zm66.9 -109.96l47.82 0 -24.48 -183.75 -0.85 0 -22.49 183.75z"/>
  </g>
 </g>
</svg>
